<?xml version="1.0" standalone="no"?>
<!DOCTYPE svg PUBLIC "-//W3C//DTD SVG 20010904//EN"
 "http://www.w3.org/TR/2001/REC-SVG-20010904/DTD/svg10.dtd">
<svg version="1.0" xmlns="http://www.w3.org/2000/svg"
 width="377.000000pt" height="377.000000pt" viewBox="0 0 377.000000 377.000000"
 preserveAspectRatio="xMidYMid meet">
<metadata>
Created by potrace 1.11, written by Peter Selinger 2001-2013
</metadata>
<g transform="translate(0.000000,377.000000) scale(0.100000,-0.100000)"
fill="#000000" stroke="none">
<path d="M255 3074 c-104 -28 -101 -27 -140 -43 -16 -6 -36 -14 -43 -16 -7 -3
-10 -10 -6 -17 4 -6 7 -25 6 -42 -1 -51 38 -118 83 -143 69 -37 133 -42 473
-39 178 2 320 0 315 -3 -4 -4 -53 -18 -108 -30 -55 -13 -106 -28 -112 -33 -7
-6 -13 -8 -13 -4 0 13 -59 -24 -74 -46 -47 -67 16 -134 335 -358 105 -74 213
-175 254 -238 l29 -44 17 24 c10 12 16 24 14 26 -6 6 45 112 80 168 19 29 63
77 99 106 71 58 71 67 8 94 -45 18 -231 65 -312 78 -8 1 -24 5 -35 9 -11 3
-31 8 -45 11 -54 9 -126 29 -136 38 -7 5 -16 8 -20 7 -5 -1 -17 -1 -26 0 -20
1 -25 27 -5 28 6 0 39 8 72 16 57 15 105 39 199 97 l39 23 -6 63 c-11 118 -55
157 -172 157 -68 0 -138 -7 -151 -15 -14 -9 -81 -21 -171 -32 -18 -3 -38 -8
-45 -12 -7 -4 -81 -8 -166 -9 -120 -1 -157 1 -168 12 -8 8 -14 18 -14 23 0 32
152 45 198 17 6 -5 12 -6 12 -2 0 3 13 -1 30 -10 28 -14 31 -14 50 5 25 25 25
46 1 86 -45 73 -182 92 -346 48z"/>
<path d="M3375 3069 c-108 -10 -156 -27 -197 -67 -44 -42 -46 -49 -15 -51 12
0 33 -2 47 -4 14 -1 50 2 80 8 30 6 86 11 123 10 74 -2 103 -16 69 -34 -33
-18 -89 -24 -217 -23 -156 1 -190 5 -310 36 -54 15 -134 29 -160 28 -30 0
-114 -13 -142 -21 -17 -5 -34 -7 -36 -4 -3 2 -14 0 -24 -5 -17 -10 -18 -18
-12 -86 4 -41 13 -84 21 -94 73 -103 127 -123 318 -118 74 2 138 5 143 5 4 1
7 12 7 25 0 23 -19 35 -75 48 -52 13 -219 76 -222 84 -5 16 152 10 327 -12
222 -27 333 -23 465 20 57 18 97 52 110 94 9 30 -27 99 -73 137 -31 26 -44 30
-96 30 -34 1 -92 -2 -131 -6z"/>
<path d="M3135 2665 c-33 -18 -63 -31 -67 -28 -5 2 -8 0 -8 -5 0 -5 -8 -12
-17 -15 -10 -3 -49 -18 -88 -33 -86 -33 -213 -67 -295 -79 -14 -1 -43 -6 -65
-9 -22 -3 -74 -8 -115 -11 -130 -9 -169 -16 -196 -37 l-25 -21 38 -17 c48 -22
83 -61 214 -230 57 -74 107 -136 111 -138 5 -2 8 -10 8 -18 0 -24 15 -15 34
21 28 52 118 141 231 230 174 137 243 207 283 289 35 68 47 138 24 135 -4 -1
-34 -16 -67 -34z"/>
<path d="M1848 2496 c-21 -8 -38 -12 -38 -11 0 8 -133 -35 -177 -57 -75 -38
-161 -130 -214 -228 -13 -25 -29 -49 -35 -55 -6 -5 -28 -41 -49 -80 -38 -68
-39 -73 -39 -173 -1 -125 8 -139 57 -90 47 46 113 106 171 153 27 22 54 45 60
51 22 20 135 94 145 94 6 0 11 4 11 8 0 16 84 35 155 37 53 1 85 -5 130 -23
33 -13 62 -27 65 -31 3 -3 22 -15 43 -26 20 -11 37 -23 37 -27 0 -5 5 -8 11
-8 15 0 253 -184 276 -214 11 -13 28 -26 39 -28 17 -3 19 4 22 79 l3 81 -56
108 c-31 59 -75 139 -98 178 -46 77 -134 174 -182 199 -30 15 -118 50 -122 48
-4 -1 -5 -1 -83 12 -25 5 -56 10 -70 12 -14 2 -42 -2 -62 -9z"/>
<path d="M1870 2098 c-19 -4 -46 -10 -60 -12 -47 -7 -85 -19 -122 -37 -40 -20
-88 -64 -88 -79 0 -6 -4 -10 -8 -10 -4 0 -22 -24 -40 -54 -33 -54 -38 -87 -33
-228 1 -26 24 -40 33 -20 2 4 28 28 58 52 30 25 57 47 60 50 3 3 21 17 40 30
19 13 37 27 40 31 3 3 25 17 50 29 65 33 132 31 195 -4 71 -40 162 -107 223
-164 7 -6 22 -17 33 -22 22 -12 20 -21 23 110 l1 95 -56 75 c-31 41 -65 82
-75 90 -48 39 -217 81 -274 68z"/>
<path d="M1811 1801 c-59 -23 -127 -85 -155 -140 -71 -139 -15 -308 126 -382
21 -10 46 -20 57 -22 11 -2 23 -6 26 -9 9 -8 75 1 129 19 58 18 131 87 161
148 29 62 30 168 1 231 -64 137 -215 205 -345 155z m164 -140 c101 -59 100
-204 -2 -264 -73 -42 -169 -10 -204 67 -22 49 -23 76 -5 119 13 31 66 98 66
83 0 -4 9 -1 20 7 25 18 84 12 125 -12z"/>
<path d="M2081 567 c-8 -11 -6 -18 8 -31 17 -16 20 -16 35 0 13 12 14 19 5 30
-15 18 -33 18 -48 1z"/>
<path d="M1150 535 c0 -11 7 -14 28 -10 15 2 32 1 37 -3 7 -4 11 -58 11 -134
l-1 -128 -30 -1 c-16 -1 -33 -1 -37 0 -5 0 -8 -6 -8 -14 0 -12 17 -15 95 -15
80 0 93 2 89 15 -4 9 -19 15 -40 15 -19 0 -34 5 -35 10 0 6 0 48 0 95 0 176
-4 161 36 160 19 0 36 5 37 10 2 6 -34 11 -89 13 -79 2 -93 0 -93 -13z"/>
<path d="M2339 518 c-1 -18 -1 -36 -1 -39 1 -3 -12 -6 -28 -7 -17 0 -34 -4
-40 -7 -19 -12 -1 -22 35 -20 l35 3 -1 -83 c-1 -45 4 -92 10 -103 11 -20 53
-39 81 -37 8 1 23 3 33 3 9 1 17 8 17 15 0 9 -10 12 -30 9 -18 -2 -40 2 -55
12 -23 15 -25 22 -25 100 l0 83 45 -2 c46 -1 75 8 62 21 -4 4 -29 6 -57 5
l-50 -1 0 40 c0 29 -4 40 -15 40 -10 0 -15 -11 -16 -32z"/>
<path d="M1485 467 c-45 -24 -61 -64 -43 -103 8 -18 8 -31 0 -50 -9 -18 -9
-31 -1 -46 9 -16 7 -27 -7 -53 -16 -31 -16 -35 -2 -57 17 -26 25 -28 103 -32
56 -3 86 12 104 50 15 33 7 57 -24 74 -21 11 -45 15 -132 19 -17 1 -23 7 -23
25 0 31 12 38 41 28 62 -23 139 36 124 96 -8 31 -5 38 11 34 7 -1 15 2 19 8 3
5 -2 10 -12 11 -10 0 -45 2 -78 4 -33 2 -69 -1 -80 -8z m89 -22 c18 -12 23
-23 21 -46 -3 -39 -22 -58 -60 -61 -37 -2 -54 7 -64 35 -23 63 45 110 103 72z
m29 -219 c8 -7 14 -21 12 -32 -2 -10 -4 -22 -4 -25 -2 -12 -53 -29 -86 -29
-45 0 -79 32 -69 63 4 12 12 25 18 29 17 12 110 7 129 -6z"/>
<path d="M1786 455 c-34 -23 -36 -23 -36 -5 0 11 -7 20 -15 20 -12 0 -15 -20
-15 -120 0 -100 3 -120 15 -120 15 0 17 16 16 123 0 38 5 55 23 74 26 27 82
35 97 12 9 -15 10 -23 12 -134 2 -55 5 -70 17 -70 12 0 15 17 16 90 0 100 -12
139 -48 149 -36 9 -43 8 -82 -19z"/>
<path d="M2036 472 c-30 -6 -11 -27 25 -27 l34 0 2 -92 2 -93 -37 -1 c-20 -1
-40 -1 -44 0 -5 0 -8 -5 -8 -13 0 -11 21 -14 95 -15 81 -1 95 1 95 14 0 13 -8
16 -32 13 l-33 -3 -5 110 -5 110 -36 0 c-20 0 -44 -2 -53 -3z"/>
<path d="M2632 464 c-60 -31 -82 -105 -51 -174 28 -61 79 -79 150 -50 65 27
83 143 32 200 -35 38 -85 47 -131 24z m112 -40 c8 -10 14 -43 14 -74 -1 -45
-5 -59 -25 -78 -28 -25 -84 -25 -110 0 -32 33 -25 144 11 171 19 14 96 1 110
-19z"/>
</g>
</svg>
