<?xml version="1.0" encoding="utf-8"?>
<!-- Generator: Adobe Illustrator 24.0.2, SVG Export Plug-In . SVG Version: 6.00 Build 0)  -->
<svg version="1.1" id="Capa_1" xmlns="http://www.w3.org/2000/svg" xmlns:xlink="http://www.w3.org/1999/xlink" x="0px" y="0px"
	 viewBox="0 0 1280 657" style="enable-background:new 0 0 1280 657;" xml:space="preserve">
<style type="text/css">
	.st0{fill:#FFFFFF;}
</style>
<title>LogoIgnito</title>
<path class="st0" d="M1280,69c-3.1,12.5-11.9,19.9-22.4,26c-16.7,9.7-34.9,14.6-53.7,17.7c-20.8,3.4-41.7,5.8-62.7,4.1
	c-21.6-1.8-43-4.8-64.5-7c-17.4-1.8-34.8-3.2-52.2-4.7c-13.8-1.2-27.5-2.5-41.3-3.4c-6.3-0.3-12.6-0.1-18.9,0.5
	c-1.7,0.1-4.6,2.1-4.6,3.2c0,1.8,1.6,4.5,3.2,5.2c5.2,2.3,10.6,3.8,16,5.6c25.4,8.5,50.8,16.9,76.2,25.4c5.4,1.8,9.7,4.5,10.1,10.9
	c0.3,5.2-1.3,7.7-6.4,8.2c-28.2,2.9-56.3,6.6-84.7,3.4c-21.3-2.4-41.7-7.7-57.8-23.1C895,120.6,886.4,96,891.1,67
	c0.8-5,3.2-8.2,8.7-9.4c33-6.9,66.3-10,99.8-4.8c19.3,3,38.3,8.4,57.4,12.7c34.2,7.6,69.4,9.6,104.3,5.7c15.5-1.7,31-4.1,46.5-6.4
	c4-0.6,8.1-1.7,8.3-6.9c0.2-4.3-2.1-6.3-8.2-7.5c-19.1-3.8-38.1-3-57,1.3c-19.2,4.4-38.4,5.8-58.3,0.6c0.5-1.2,1-2.4,1.6-3.6
	c9.7-16,24.3-25.3,42.1-29.7c18.4-4.6,37.4-7,56.3-6.9c8.8,0.1,17.6-0.6,26.4-1c18.2-0.9,32.8,6.1,44.1,20
	c7.5,9.2,13.9,19,16.7,30.8L1280,69z"/>
<path class="st0" d="M647,657c-8.9-1.9-18.2-2.9-26.6-6c-40.3-14.8-63-44.1-65.9-86.7c-2.6-38,10.6-70.5,43.4-92
	C647,440,716.5,454.7,743,519.9c25.2,62-17.9,119.8-65,133.3c-5.9,1.7-12,2.5-18,3.8H647z M705.4,558.2
	c0.3-30.2-23.6-55.8-52.3-56.1c-29-0.3-54.7,25.3-55,54.8c-0.3,29.9,24.2,55.8,53,56C681.4,613.2,705.1,589.3,705.4,558.2z"/>
<path class="st0" d="M422.4,382c-15.6-23.9-33.8-45.5-55.7-63.3c-23.4-19-47.9-36.5-72.1-54.4c-20.7-15.3-42.3-29.6-62.4-45.8
	c-10-8.1-17.7-19.3-25.9-29.6c-3-3.8-4.8-8.8-5.9-13.6c-2.1-8.5,1.1-15.7,7.8-21.3c9.3-7.7,20.4-12.1,31.8-15.1
	c22.7-5.8,45.6-10.9,68.4-16.3c2.8-0.7,5.3-1.5,4.7-5.1c-0.6-4-3.7-4.4-6.8-4.2c-9.6,0.5-19.3,1.3-28.9,1.7
	c-30.8,1.4-61.6,3.2-92.4,3.7c-28.1,0.5-56.3-0.2-84.4-1c-20.2-0.6-40.3-3-59.1-10.9c-6.1-2.5-11.7-6.2-16.6-10.7
	C11.6,83.8,3.6,66.8,2.4,48.6C1.5,37,3.7,33.6,14.4,29.3C41.1,18.7,68.3,9.9,96.7,5.6c21.6-3.3,43.4-5.5,64.8,1.4
	c15.7,5.1,28.8,13.4,34.3,30c1.4,4.4,1.5,9.1,0.4,13.6C193.5,60.6,186.2,64,176.2,61c-10.8-3.2-21.6-6.8-32.6-9.2
	c-15.5-3.3-31.2-2.1-46.6,1.4c-3.7,0.8-7,2.6-7.8,6.8c-0.8,4.4,0.2,8.7,4.1,11s8.4,4.4,12.8,4.8c40.1,2.8,80.4,0.6,119.9-6.6
	c26.8-4.9,53.5-10.9,80.3-15.6c20.9-3.7,42.1-4.8,63,0.6c17.6,4.6,27.7,16.7,31.2,34.1c1.8,9.1,2.1,18.5,2.5,27.8
	c0.4,7.2-3.1,14.1-9.2,18c-27.5,18.9-56.8,34-89.9,40.6c-2.6,0.5-5.3,0.4-8,0.6c-3.2,0.3-5.4,1.6-5.3,5.3c0,3.4,1.2,5.6,4.8,6.4
	c48.4,11.3,96.8,22.5,145.1,34c23.1,5.5,46.3,11.1,68,21.2l0.5,0.2c10,4.7,10.6,9,1.3,15.4c-31,21.4-53.3,49.9-68.3,84.2
	c-3.4,7.8-6.1,15.8-9.1,23.7C430.7,371.9,427.9,377.7,422.4,382z"/>
<path class="st0" d="M439.6,445c-0.8-9.4-1.5-18.9-2.4-28.3c-1.3-12.4,1.3-24.8,7.4-35.7c8.9-15.8,18.5-31.2,28.4-46.4
	c11.3-17.5,22.4-35.1,34.8-51.8c21.3-29,50.4-46.9,85-56.1c14.5-3.8,28.8-8,43.4-11.5c14.2-3.4,28.5-2.7,42.6,0.8
	c19.3,4.9,38.9,9.2,57.7,15.6c27.1,9.3,47.8,28,63.2,51.5c14.9,22.8,28,46.8,41.4,70.6c8.2,14.5,15.1,29.7,23.1,44.2
	c7.7,13.9,9.2,28.6,7.9,44c-0.5,6.1-1.2,12.3-1.9,18.4c-0.7,5.7-3.1,7.4-8.4,5.5c-2.8-1-5.4-2.6-7.6-4.7
	c-24.3-25.5-52.8-45.8-80.8-66.7c-20-14.9-40.2-29.5-62.6-40.9c-23.6-12-48.2-18.1-74.7-14.7c-24.8,3.2-46.8,13.7-66.9,28.2
	c-34.1,24.5-65.6,52.3-96.9,80.3c-7.8,7-15.4,14.3-23.3,21.2c-1.5,1.3-4.6,2.3-6,1.6c-2-1.2-3.3-3.3-3.6-5.7
	c-0.5-6.5-0.2-13-0.2-19.5L439.6,445z"/>
<path class="st0" d="M914.3,386.6c-9.1-11.5-18-22.8-27-34.1c-21.5-27.3-43.1-54.7-64.7-82c-7-8.8-14.4-17.1-24.6-22.3
	c-3.1-1.6-6.5-2.3-9.7-3.8c-2-1-5.3-2.8-5.2-4.1c0.2-2.6,1.5-6.4,3.5-7.3c6.8-3.3,14-6.7,21.4-7.9c13.8-2,27.7-3.4,41.7-4
	c52.2-3,103.4-11.6,153.3-27.7c31.2-10,61.4-22.9,90.3-38.5c3.8-2.1,7.4-4.6,11.2-6.5c6.8-3.4,12.4,0.4,11.2,7.9
	c-1.3,7.2-3.3,14.2-5.9,21.1c-10.2,27.8-28.1,50.3-50,69.4c-25.8,22.5-52.6,44-79.1,65.7c-18.7,15.3-37.6,30.3-51.4,50.6
	C924.3,370.7,919.5,378.5,914.3,386.6z"/>
<path class="st0" d="M783,473.2c0,9.5,0,19,0,28.4c0,3.6,1,7.5-3.5,9.4c-4.3,1.9-6.9-0.9-9.7-3.1c-22-17.5-43.8-35.3-66.1-52.4
	c-11.3-8.8-24.3-15.4-38.1-19.2c-19.4-5.2-37.7-1.2-53.9,9.5c-16.5,10.9-32.1,23.1-47.8,35.3c-12.9,10-25.3,20.6-37.8,31
	c-3.8,3.2-8.4,1.8-8.9-2.9c-1-10.9-2.4-21.9-2.3-32.8c0.3-29.3,12-54.3,30.7-76.2c7.4-8.6,16.4-15.9,24.7-23.7
	c33.3-13.7,67.2-25,104-19.6c38.6,5.8,70.1,24.3,94,55.2c12.9,16.7,17,36.2,14.8,57.1c-0.1,1.3-0.3,2.6-0.4,4L783,473.2z"/>
</svg>
